HIERARCHY
ROOT joint_0
{
	OFFSET 0.000000 0.000000 0.000000
	CHANNELS 6 Xposition Yposition Zposition Zrotation Yrotation Xrotation 
	JOINT joint_1
	{
		OFFSET 14.113007 -2.961990 123.953979
		CHANNELS 3 Zrotation Yrotation Xrotation
		JOINT joint_2
		{
			OFFSET 0.764000 -2.434006 113.871948
			CHANNELS 3 Zrotation Yrotation Xrotation
			JOINT joint_3
			{
				OFFSET 0.186996 -2.169998 113.753052
				CHANNELS 3 Zrotation Yrotation Xrotation
				JOINT joint_4
				{
					OFFSET 16.096001 -2.720001 160.853027
					CHANNELS 3 Zrotation Yrotation Xrotation
					JOINT joint_5
					{
						OFFSET 34.392006 -0.188995 92.567017
						CHANNELS 3 Zrotation Yrotation Xrotation
						End Site
						{
							OFFSET 0.000000 0.000000 0.000000
						}
					}
				}
				JOINT joint_6
				{
					OFFSET 9.183998 -36.684006 89.597046
					CHANNELS 3 Zrotation Yrotation Xrotation
					JOINT joint_7
					{
						OFFSET 0.486000 -164.365997 -28.984009
						CHANNELS 3 Zrotation Yrotation Xrotation
						JOINT joint_8
						{
							OFFSET 38.899002 -34.967010 -291.651978
							CHANNELS 3 Zrotation Yrotation Xrotation
							JOINT joint_9
							{
								OFFSET 41.714005 -45.890991 -258.857056
								CHANNELS 3 Zrotation Yrotation Xrotation
								End Site
								{
									OFFSET 0.000000 0.000000 0.000000
								}
							}
						}
					}
				}
				JOINT joint_10
				{
					OFFSET 8.867004 33.650002 90.817993
					CHANNELS 3 Zrotation Yrotation Xrotation
					JOINT joint_11
					{
						OFFSET 0.018997 164.299999 -29.368042
						CHANNELS 3 Zrotation Yrotation Xrotation
						JOINT joint_12
						{
							OFFSET 29.440994 30.887997 -293.216919
							CHANNELS 3 Zrotation Yrotation Xrotation
							JOINT joint_13
							{
								OFFSET 46.174011 54.490005 -256.422058
								CHANNELS 3 Zrotation Yrotation Xrotation
								End Site
								{
									OFFSET 0.000000 0.000000 0.000000
								}
							}
						}
					}
				}
			}
		}
	}
	JOINT joint_14
	{
		OFFSET -2.264000 -89.466995 -116.150024
		CHANNELS 3 Zrotation Yrotation Xrotation
		JOINT joint_15
		{
			OFFSET -16.400993 -17.452988 -493.781982
			CHANNELS 3 Zrotation Yrotation Xrotation
			JOINT joint_16
			{
				OFFSET -50.497004 -13.404022 -424.754013
				CHANNELS 3 Zrotation Yrotation Xrotation
				JOINT joint_17
				{
					OFFSET 198.546007 -19.341003 -89.309000
					CHANNELS 3 Zrotation Yrotation Xrotation
					End Site
					{
						OFFSET 0.000000 0.000000 0.000000
					}
				}
			}
		}
	}
	JOINT joint_18
	{
		OFFSET -0.867996 96.016006 -110.817993
		CHANNELS 3 Zrotation Yrotation Xrotation
		JOINT joint_19
		{
			OFFSET -10.130997 24.658998 -493.645020
			CHANNELS 3 Zrotation Yrotation Xrotation
			JOINT joint_20
			{
				OFFSET -48.871004 19.434999 -424.714005
				CHANNELS 3 Zrotation Yrotation Xrotation
				JOINT joint_21
				{
					OFFSET 195.579996 24.926001 -94.327003
					CHANNELS 3 Zrotation Yrotation Xrotation
					End Site
					{
						OFFSET 0.000000 0.000000 0.000000
					}
				}
			}
		}
	}
}
MOTION
Frames: 9
Frame Time: 0.016667
-2654.124023 871.224365 1145.121948 4.214184 -4.037284 -1.594804 -1.052975 -0.570258 1.104545 -1.029831 0.082188 -0.350761 -1.033522 -0.092833 0.156374 -0.809522 0.686550 2.159804 0.000000 0.000000 0.000000 -1.026411 1.346188 -0.201766 -0.099478 1.183500 0.301712 -0.011886 -0.429248 -0.545926 0.000000 0.000000 0.000000 0.999813 0.005897 0.846271 0.485829 -0.084379 1.584530 0.717344 1.703941 2.003831 0.000000 0.000000 0.000000 3.367153 3.132528 3.876181 3.658967 -0.996004 0.276901 3.572866 -2.066565 1.394405 0.000000 0.000000 0.000000 -1.763805 1.839230 0.664740 -1.914243 -1.298698 0.089077 -1.774147 -0.431219 -0.797159 0.000000 0.000000 0.000000 
-2654.025635 871.257385 1145.081055 4.209914 -4.041355 -1.595764 -1.049835 -0.567231 1.094192 -1.026855 0.081103 -0.349263 -1.030486 -0.090677 0.156260 -0.810285 0.680576 2.161818 0.000000 0.000000 0.000000 -1.022999 1.330117 -0.160728 -0.101027 1.168097 0.279623 -0.014091 -0.422192 -0.551868 0.000000 0.000000 0.000000 0.989895 0.000786 0.817991 0.488652 -0.087143 1.609143 0.718702 1.710884 2.003378 0.000000 0.000000 0.000000 3.367634 3.127751 3.876452 3.658361 -0.971834 0.276622 3.572013 -2.047437 1.395921 0.000000 0.000000 0.000000 -1.762260 1.838551 0.669879 -1.911307 -1.278246 0.077021 -1.773589 -0.431167 -0.796910 0.000000 0.000000 0.000000 
-2653.930176 871.301208 1145.042969 4.207073 -4.044773 -1.597391 -1.047509 -0.566154 1.085246 -1.024602 0.081335 -0.347784 -1.028196 -0.088715 0.155448 -0.810846 0.675314 2.163301 0.000000 0.000000 0.000000 -1.020478 1.314216 -0.120653 -0.102793 1.152741 0.255315 -0.015934 -0.416056 -0.556572 0.000000 0.000000 0.000000 0.979942 -0.005148 0.789324 0.490713 -0.090868 1.634949 0.718427 1.712009 2.000534 0.000000 0.000000 0.000000 3.367765 3.125775 3.877033 3.657822 -0.954229 0.275485 3.570992 -2.028975 1.397296 0.000000 0.000000 0.000000 -1.761624 1.835167 0.673428 -1.909074 -1.254511 0.068327 -1.773427 -0.430449 -0.796936 0.000000 0.000000 0.000000 
-2653.837646 871.363831 1145.008057 4.207401 -4.048040 -1.599540 -1.046451 -0.565113 1.077822 -1.023652 0.080000 -0.345548 -1.027183 -0.086776 0.153144 -0.811266 0.672233 2.164408 0.000000 0.000000 0.000000 -1.019512 1.299356 -0.083011 -0.104746 1.138185 0.228473 -0.016757 -0.412941 -0.558273 0.000000 0.000000 0.000000 0.969211 -0.011202 0.759930 0.491753 -0.094765 1.662534 0.715659 1.704875 1.993290 0.000000 0.000000 0.000000 3.367005 3.129910 3.876935 3.657060 -0.947793 0.273857 3.569522 -2.012615 1.398263 0.000000 0.000000 0.000000 -1.762650 1.827373 0.672638 -1.908110 -1.223053 0.066501 -1.774027 -0.429577 -0.797348 0.000000 0.000000 0.000000 
-2653.747803 871.436279 1144.973999 4.208444 -4.051087 -1.602482 -1.045432 -0.565056 1.071514 -1.022696 0.079405 -0.343669 -1.026192 -0.085577 0.152064 -0.811077 0.671121 2.163895 0.000000 0.000000 0.000000 -1.020147 1.285351 -0.048262 -0.106837 1.124232 0.200536 -0.017303 -0.411205 -0.559767 0.000000 0.000000 0.000000 0.956424 -0.018101 0.729044 0.492143 -0.099263 1.691316 0.711400 1.692718 1.983509 0.000000 0.000000 0.000000 3.366101 3.137337 3.877462 3.656599 -0.947897 0.271203 3.568098 -1.997292 1.399150 0.000000 0.000000 0.000000 -1.764264 1.817491 0.670658 -1.907543 -1.188334 0.067511 -1.774828 -0.428680 -0.797860 0.000000 0.000000 0.000000 
-2653.671143 871.509521 1144.942017 4.207223 -4.053512 -1.605560 -1.044237 -0.564844 1.065517 -1.021555 0.079196 -0.342226 -1.025024 -0.084469 0.150817 -0.811069 0.670154 2.163874 0.000000 0.000000 0.000000 -1.019876 1.271315 -0.013622 -0.109041 1.110420 0.170724 -0.017067 -0.410301 -0.557332 0.000000 0.000000 0.000000 0.945101 -0.026604 0.698634 0.492407 -0.105657 1.720033 0.707342 1.680512 1.974908 0.000000 0.000000 0.000000 3.366101 3.141721 3.878079 3.656786 -0.945020 0.269207 3.567512 -1.983573 1.400253 0.000000 0.000000 0.000000 -1.765206 1.807401 0.669897 -1.906331 -1.155650 0.066532 -1.775110 -0.427085 -0.798211 0.000000 0.000000 0.000000 
-2653.614990 871.576904 1144.912964 4.201379 -4.055621 -1.609131 -1.041241 -0.562828 1.059645 -1.018664 0.078659 -0.341329 -1.022094 -0.082994 0.150427 -0.811402 0.667157 2.164751 0.000000 0.000000 0.000000 -1.020189 1.257316 0.020203 -0.111206 1.096532 0.138822 -0.015444 -0.411877 -0.549004 0.000000 0.000000 0.000000 0.933828 -0.038301 0.668699 0.492622 -0.115272 1.747842 0.704156 1.669846 1.969423 0.000000 0.000000 0.000000 3.367873 3.140184 3.879757 3.658230 -0.934208 0.267809 3.568480 -1.972099 1.401831 0.000000 0.000000 0.000000 -1.764680 1.798503 0.673050 -1.903750 -1.127520 0.059946 -1.774484 -0.424753 -0.798214 0.000000 0.000000 0.000000 
-2653.570801 871.644165 1144.884033 4.192550 -4.057488 -1.613148 -1.037129 -0.560963 1.053689 -1.014632 0.079575 -0.339742 -1.018068 -0.082588 0.149808 -0.811864 0.665052 2.165980 0.000000 0.000000 0.000000 -1.020900 1.244000 0.053181 -0.113453 1.083268 0.105564 -0.013007 -0.414859 -0.537181 0.000000 0.000000 0.000000 0.920955 -0.051547 0.639039 0.492820 -0.126160 1.775702 0.701230 1.659220 1.965344 0.000000 0.000000 0.000000 3.370806 3.136198 3.882188 3.660647 -0.920603 0.266461 3.570533 -1.962634 1.403696 0.000000 0.000000 0.000000 -1.763319 1.790109 0.677937 -1.900397 -1.101578 0.051290 -1.773279 -0.422737 -0.797898 0.000000 0.000000 0.000000 
-2653.529785 871.723206 1144.853027 4.184274 -4.058632 -1.616604 -1.034054 -0.558857 1.048102 -1.011677 0.078515 -0.339089 -1.015065 -0.080931 0.149561 -0.811910 0.662508 2.166113 0.000000 0.000000 0.000000 -1.020828 1.230809 0.087904 -0.116109 1.070326 0.070765 -0.011206 -0.416040 -0.527317 0.000000 0.000000 0.000000 0.908458 -0.063932 0.607246 0.493251 -0.136213 1.805724 0.698124 1.648605 1.960209 0.000000 0.000000 0.000000 3.373462 3.132576 3.882747 3.662751 -0.908944 0.266620 3.572493 -1.954720 1.405368 0.000000 0.000000 0.000000 -1.761896 1.781021 0.680279 -1.897072 -1.076349 0.045007 -1.771766 -0.420033 -0.797521 0.000000 0.000000 0.000000 
